<svg width="18" height="19" viewBox="0 0 18 19" fill="none" xmlns="http://www.w3.org/2000/svg">
<path d="M14.25 13.25V9.35C13.875 9.425 13.5 9.5 13.125 9.5H12.75V14H5.25V8.75C5.25 6.65 6.9 5 9 5C9.075 4.025 9.525 3.2 10.125 2.525C9.9 2.225 9.45 2 9 2C8.175 2 7.5 2.675 7.5 3.5V3.725C5.25 4.4 3.75 6.425 3.75 8.75V13.25L2.25 14.75V15.5H15.75V14.75L14.25 13.25ZM7.5 16.25C7.5 17.075 8.175 17.75 9 17.75C9.825 17.75 10.5 17.075 10.5 16.25H7.5Z" fill="#101010"/>
<circle cx="13.5" cy="4" r="2.5" fill="#C01212"/>
</svg>
