<svg width="38" height="38" viewBox="0 0 38 38" fill="none" xmlns="http://www.w3.org/2000/svg">
<path d="M34.6156 14.707H10.8656C10.2043 14.707 9.56996 14.9698 9.10229 15.4374C8.63462 15.9051 8.37189 16.5394 8.37189 17.2008V30.008C8.37189 30.6694 8.63462 31.3036 9.10229 31.7713C9.56996 32.239 10.2043 32.5017 10.8656 32.5017H34.6156C35.277 32.5017 35.9113 32.239 36.379 31.7713C36.8467 31.3036 37.1094 30.6694 37.1094 30.008V17.2186C37.1117 16.8896 37.049 16.5634 36.9247 16.2588C36.8004 15.9542 36.6171 15.6772 36.3853 15.4437C36.1535 15.2103 35.8778 15.025 35.5741 14.8985C35.2704 14.7721 34.9446 14.707 34.6156 14.707ZM35.5656 30.008C35.5641 30.2579 35.4641 30.4971 35.2874 30.6738C35.1107 30.8505 34.8715 30.9505 34.6216 30.952H10.8716C10.6217 30.9505 10.3825 30.8505 10.2057 30.6738C10.029 30.4971 9.92907 30.2579 9.92751 30.008V17.2186C9.92907 16.9687 10.029 16.7295 10.2057 16.5528C10.3825 16.3761 10.6217 16.2761 10.8716 16.2745H34.6216C34.8715 16.2761 35.1107 16.3761 35.2874 16.5528C35.4641 16.7295 35.5641 16.9687 35.5656 17.2186V30.008Z" fill="#25AE4B"/>
<path d="M31.6766 24.0942C31.0896 24.0938 30.5253 24.3216 30.1032 24.7296C29.7824 24.4215 29.3782 24.2145 28.9408 24.1344C28.5034 24.0542 28.0521 24.1044 27.6429 24.2787C27.2338 24.453 26.885 24.7437 26.6398 25.1147C26.3946 25.4857 26.2639 25.9206 26.2639 26.3653C26.2639 26.81 26.3946 27.2449 26.6398 27.6159C26.885 27.9869 27.2338 28.2776 27.6429 28.452C28.0521 28.6263 28.5034 28.6765 28.9408 28.5963C29.3782 28.5161 29.7824 28.3092 30.1032 28.0011C30.371 28.2574 30.6975 28.4441 31.0542 28.5449C31.4108 28.6458 31.7868 28.6577 32.1491 28.5796C32.5115 28.5015 32.8491 28.3358 33.1326 28.097C33.4161 27.8581 33.6367 27.5535 33.7752 27.2097C33.9136 26.8659 33.9657 26.4933 33.9269 26.1247C33.888 25.7561 33.7595 25.4026 33.5524 25.0952C33.3453 24.7878 33.0661 24.5358 32.7391 24.3613C32.412 24.1868 32.0473 24.0951 31.6766 24.0942Z" fill="#25AE4B"/>
<path d="M16.0372 18.5723H11.9166C11.6968 18.5723 11.5187 18.7504 11.5187 18.9701V21.3807C11.5187 21.6004 11.6968 21.7785 11.9166 21.7785H16.0372C16.2569 21.7785 16.435 21.6004 16.435 21.3807V18.9701C16.435 18.7504 16.2569 18.5723 16.0372 18.5723Z" fill="#25AE4B"/>
<path d="M11.5187 27.4312H24.8781V28.6365H11.5187V27.4312Z" fill="#25AE4B"/>
<path d="M11.5187 23.9932H24.8781V25.1985H11.5187V23.9932Z" fill="#25AE4B"/>
<path d="M29.2422 7.47535C29.1199 6.83848 28.7498 6.27622 28.2132 5.91214C27.6765 5.54807 27.0173 5.41198 26.3803 5.53378L2.96874 9.62472C2.32891 9.7269 1.75576 10.0788 1.37506 10.603C0.994365 11.1273 0.83722 11.7813 0.938115 12.4213L3.0578 24.6347C3.1189 24.9513 3.242 25.2528 3.42002 25.5216C3.59804 25.7905 3.82746 26.0216 4.09508 26.2014C4.36271 26.3813 4.66326 26.5065 4.97945 26.5698C5.29564 26.6332 5.62123 26.6333 5.93749 26.5703L7.36843 26.321V24.8247L5.68218 25.1216C5.55758 25.1463 5.42927 25.1457 5.30493 25.1197C5.1806 25.0936 5.06279 25.0428 4.95857 24.9702C4.85434 24.8976 4.76585 24.8046 4.69838 24.697C4.63091 24.5894 4.58586 24.4692 4.56593 24.3438L3.27155 16.9813L7.48124 16.245C7.6902 15.5133 8.13178 14.8694 8.73918 14.4109C9.34658 13.9524 10.0868 13.7042 10.8478 13.7038H22.0341L28.5653 12.5578L28.7672 13.7038H30.3169L29.2422 7.47535ZM2.74905 14.0066L2.42843 12.1778C2.39081 11.9315 2.45209 11.6804 2.5989 11.479C2.74571 11.2777 2.96616 11.1426 3.21218 11.1032L26.6356 7.01222C26.8754 6.96403 27.1245 7.01074 27.3305 7.14253C27.5364 7.27433 27.6833 7.48091 27.74 7.71879L28.0606 9.54753L2.74905 14.0066Z" fill="#6C7278"/>
</svg>
