<svg width="19" height="20" viewBox="0 0 19 20" fill="none" xmlns="http://www.w3.org/2000/svg">
<g clip-path="url(#clip0_100_3981)">
<path d="M9.17333 0C13.9893 0 18.3467 3.15592 18.3467 8.03682C18.3467 11.2907 15.2851 15.1425 9.17333 19.602C3.0616 15.1425 0 11.2907 0 8.03682C0 3.15592 4.35733 0 9.17333 0ZM16.0533 8.03682C16.0533 4.47905 13.0147 1.9602 9.17333 1.9602C5.332 1.9602 2.29333 4.47905 2.29333 8.03682C2.29333 10.3302 4.52933 13.3686 9.17333 16.9949C13.8173 13.3686 16.0533 10.3302 16.0533 8.03682ZM9.17333 9.80099C7.912 9.80099 6.88 8.91891 6.88 7.8408C6.88 6.76269 7.912 5.8806 9.17333 5.8806C10.4347 5.8806 11.4667 6.76269 11.4667 7.8408C11.4667 8.91891 10.4347 9.80099 9.17333 9.80099Z" fill="#4CAF50"/>
</g>
<defs>
<clipPath id="clip0_100_3981">
<rect width="18.3467" height="20" fill="white"/>
</clipPath>
</defs>
</svg>
