<svg width="18" height="19" viewBox="0 0 18 19" fill="none" xmlns="http://www.w3.org/2000/svg">
<g clip-path="url(#clip0_7411_2590)">
<path d="M9 14.3638L12.1823 11.1823C12.8115 10.5529 13.24 9.75108 13.4136 8.87819C13.5872 8.0053 13.498 7.10054 13.1574 6.27831C12.8168 5.45609 12.24 4.75333 11.5 4.2589C10.76 3.76447 9.88999 3.50056 9 3.50056C8.11002 3.50056 7.24002 3.76447 6.50002 4.2589C5.76001 4.75333 5.18323 5.45609 4.84262 6.27831C4.502 7.10054 4.41284 8.0053 4.58641 8.87819C4.75998 9.75108 5.18849 10.5529 5.81775 11.1823L9 14.3638ZM13.2428 12.2428L9 16.4855L4.75725 12.2428C3.91817 11.4036 3.34675 10.3345 3.11527 9.17067C2.88378 8.00679 3.00262 6.80041 3.45676 5.70407C3.91089 4.60773 4.67993 3.67068 5.66661 3.0114C6.6533 2.35213 7.81333 2.00024 9 2.00024C10.1867 2.00024 11.3467 2.35213 12.3334 3.0114C13.3201 3.67068 14.0891 4.60773 14.5433 5.70407C14.9974 6.80041 15.1162 8.00679 14.8847 9.17067C14.6533 10.3345 14.0818 11.4036 13.2428 12.2428ZM3.75 17H14.25V18.5H3.75V17Z" fill="#4FAF5A"/>
</g>
<defs>
<clipPath id="clip0_7411_2590">
<rect width="18" height="18" fill="white" transform="translate(0 0.5)"/>
</clipPath>
</defs>
</svg>
