<svg width="29" height="21" viewBox="0 0 29 21" fill="none" xmlns="http://www.w3.org/2000/svg">
<rect x="1" y="1.8418" width="26.2727" height="17.3161" rx="5" fill="#26365F"/>
<rect x="0.5" y="1.3418" width="27.2727" height="18.3161" rx="5.5" stroke="black" stroke-opacity="0.1"/>
<path d="M15.7654 5.26807L11.6108 5.7297L9.76425 11.7309L12.3032 15.8855L15.7654 15.6547L18.9968 12.8849L15.7654 5.26807Z" fill="#FF5C00"/>
<path fill-rule="evenodd" clip-rule="evenodd" d="M14.3805 5.37853C12.5868 6.41616 11.3799 8.35557 11.3799 10.5769C11.3799 12.7981 12.5868 14.7376 14.3805 15.7752C13.4978 16.2858 12.473 16.578 11.38 16.578C8.0656 16.578 5.37878 13.8912 5.37878 10.5769C5.37878 7.2625 8.0656 4.57568 11.38 4.57568C12.473 4.57568 13.4978 4.86792 14.3805 5.37853Z" fill="#FC0101"/>
<path fill-rule="evenodd" clip-rule="evenodd" d="M14.1497 5.37853C15.9435 6.41617 17.1503 8.35558 17.1503 10.5769C17.1503 12.7981 15.9435 14.7375 14.1497 15.7752C15.0324 16.2858 16.0572 16.578 17.1503 16.578C20.4647 16.578 23.1515 13.8912 23.1515 10.5769C23.1515 7.2625 20.4647 4.57568 17.1503 4.57568C16.0572 4.57568 15.0324 4.86792 14.1497 5.37853Z" fill="#FCD401"/>
</svg>
