<svg width="20" height="20" viewBox="0 0 20 20" fill="none" xmlns="http://www.w3.org/2000/svg">
<path d="M11.25 12.3189C12.2297 11.7087 12.9841 10.796 13.3989 9.71885C13.8137 8.64171 13.8665 7.45877 13.5491 6.34899C13.2318 5.23921 12.5616 4.26298 11.6401 3.56799C10.7185 2.873 9.59562 2.49707 8.44136 2.49707C7.2871 2.49707 6.16424 2.873 5.24267 3.56799C4.32109 4.26298 3.65093 5.23921 3.33359 6.34899C3.01624 7.45877 3.06898 8.64171 3.48381 9.71885C3.89864 10.796 4.653 11.7087 5.63277 12.3189C4.01949 12.8471 2.56792 13.8338 1.40074 15.2229C1.34605 15.2854 1.30438 15.3582 1.27816 15.437C1.25194 15.5159 1.2417 15.5991 1.24804 15.682C1.25437 15.7648 1.27716 15.8455 1.31507 15.9195C1.35297 15.9934 1.40524 16.059 1.4688 16.1125C1.53236 16.166 1.60595 16.2063 1.68527 16.231C1.76458 16.2557 1.84803 16.2643 1.93072 16.2564C2.01342 16.2485 2.09371 16.2242 2.1669 16.1849C2.24009 16.1456 2.30471 16.0921 2.35699 16.0275C3.92574 14.1557 6.08667 13.1252 8.43745 13.1252C10.7882 13.1252 12.9492 14.1557 14.521 16.0275C14.6278 16.1546 14.7806 16.234 14.9458 16.2483C15.1111 16.2627 15.2753 16.2108 15.4023 16.1041C15.5293 15.9974 15.6087 15.8446 15.6231 15.6793C15.6375 15.5141 15.5856 15.3499 15.4789 15.2229C14.3109 13.8338 12.8593 12.8471 11.25 12.3189ZM4.37495 7.81269C4.37495 7.00921 4.61322 6.22377 5.05961 5.55569C5.506 4.88762 6.14048 4.36691 6.8828 4.05943C7.62513 3.75195 8.44196 3.6715 9.23001 3.82825C10.0181 3.98501 10.7419 4.37192 11.3101 4.94007C11.8782 5.50822 12.2651 6.23209 12.4219 7.02014C12.5786 7.80819 12.4982 8.62502 12.1907 9.36735C11.8832 10.1097 11.3625 10.7441 10.6945 11.1905C10.0264 11.6369 9.24094 11.8752 8.43745 11.8752C7.36039 11.874 6.3278 11.4455 5.5662 10.6839C4.80461 9.92235 4.3762 8.88976 4.37495 7.81269ZM19.082 11.1775L18.7179 10.9674C18.7606 10.7413 18.7606 10.5091 18.7179 10.283L19.082 10.0729C19.2256 9.98997 19.3304 9.85344 19.3733 9.69331C19.4162 9.53317 19.3938 9.36253 19.3109 9.21894C19.228 9.07536 19.0915 8.97057 18.9313 8.92764C18.7712 8.88471 18.6006 8.90716 18.457 8.99004L18.0921 9.20098C17.9175 9.05118 17.7168 8.9349 17.5 8.85801V8.43769C17.5 8.27193 17.4341 8.11296 17.3169 7.99575C17.1997 7.87854 17.0407 7.81269 16.875 7.81269C16.7092 7.81269 16.5502 7.87854 16.433 7.99575C16.3158 8.11296 16.25 8.27193 16.25 8.43769V8.85801C16.0331 8.9349 15.8324 9.05118 15.6578 9.20098L15.2929 8.99004C15.2218 8.949 15.1433 8.92237 15.0619 8.91166C14.9806 8.90096 14.8979 8.90639 14.8186 8.92764C14.7393 8.9489 14.6649 8.98556 14.5998 9.03555C14.5347 9.08553 14.4801 9.14785 14.439 9.21894C14.398 9.29004 14.3713 9.36853 14.3606 9.44992C14.3499 9.53131 14.3554 9.61401 14.3766 9.69331C14.3979 9.7726 14.4345 9.84693 14.4845 9.91205C14.5345 9.97717 14.5968 10.0318 14.6679 10.0729L15.032 10.283C14.9893 10.5091 14.9893 10.7413 15.032 10.9674L14.6679 11.1775C14.5243 11.2604 14.4195 11.3969 14.3766 11.5571C14.3337 11.7172 14.3561 11.8879 14.439 12.0314C14.5219 12.175 14.6584 12.2798 14.8186 12.3227C14.9787 12.3657 15.1493 12.3432 15.2929 12.2604L15.6578 12.0494C15.8324 12.1992 16.0331 12.3155 16.25 12.3924V12.8127C16.25 12.9785 16.3158 13.1374 16.433 13.2546C16.5502 13.3718 16.7092 13.4377 16.875 13.4377C17.0407 13.4377 17.1997 13.3718 17.3169 13.2546C17.4341 13.1374 17.5 12.9785 17.5 12.8127V12.3924C17.7168 12.3155 17.9175 12.1992 18.0921 12.0494L18.457 12.2604C18.5519 12.3154 18.6597 12.3443 18.7695 12.3439C18.9071 12.344 19.0409 12.2986 19.1501 12.2149C19.2593 12.1311 19.3378 12.0136 19.3734 11.8807C19.4091 11.7477 19.3998 11.6068 19.3471 11.4796C19.2944 11.3525 19.2012 11.2463 19.082 11.1775ZM16.25 10.6252C16.25 10.5016 16.2866 10.3807 16.3553 10.278C16.424 10.1752 16.5216 10.0951 16.6358 10.0478C16.75 10.0005 16.8756 9.98809 16.9969 10.0122C17.1181 10.0363 17.2295 10.0958 17.3169 10.1833C17.4043 10.2707 17.4638 10.382 17.4879 10.5033C17.5121 10.6245 17.4997 10.7502 17.4524 10.8644C17.4051 10.9786 17.325 11.0762 17.2222 11.1449C17.1194 11.2135 16.9986 11.2502 16.875 11.2502C16.7092 11.2502 16.5502 11.1843 16.433 11.0671C16.3158 10.9499 16.25 10.791 16.25 10.6252Z" fill="#1D1D1D"/>
</svg>
