<svg width="18" height="18" viewBox="0 0 18 18" fill="none" xmlns="http://www.w3.org/2000/svg">
<path d="M9 0.875C7.39303 0.875 5.82214 1.35152 4.486 2.24431C3.14985 3.1371 2.10844 4.40605 1.49348 5.8907C0.87852 7.37535 0.717618 9.00901 1.03112 10.5851C1.34463 12.1612 2.11846 13.6089 3.25476 14.7452C4.39106 15.8815 5.8388 16.6554 7.4149 16.9689C8.99099 17.2824 10.6247 17.1215 12.1093 16.5065C13.594 15.8916 14.8629 14.8502 15.7557 13.514C16.6485 12.1779 17.125 10.607 17.125 9C17.1227 6.84581 16.266 4.78051 14.7427 3.25727C13.2195 1.73403 11.1542 0.877275 9 0.875ZM9 15.875C7.64026 15.875 6.31105 15.4718 5.18046 14.7164C4.04987 13.9609 3.16868 12.8872 2.64833 11.6309C2.12798 10.3747 1.99183 8.99237 2.2571 7.65875C2.52238 6.32513 3.17716 5.10013 4.13864 4.13864C5.10013 3.17716 6.32514 2.52237 7.65876 2.2571C8.99238 1.99183 10.3747 2.12798 11.631 2.64833C12.8872 3.16868 13.9609 4.04987 14.7164 5.18045C15.4718 6.31104 15.875 7.64025 15.875 9C15.8729 10.8227 15.1479 12.5702 13.8591 13.8591C12.5702 15.1479 10.8227 15.8729 9 15.875ZM9 4.625C8.38203 4.62513 7.77798 4.80848 7.2642 5.15187C6.75041 5.49526 6.34998 5.98327 6.11351 6.5542C5.87704 7.12514 5.81516 7.75337 5.93568 8.35947C6.0562 8.96558 6.35372 9.52234 6.79063 9.95938L5.94219 12.0906C5.88557 12.2328 5.86461 12.3867 5.88115 12.5388C5.89768 12.6909 5.95121 12.8367 6.03706 12.9634C6.1229 13.0901 6.23845 13.1938 6.37362 13.2656C6.50879 13.3373 6.65947 13.3749 6.8125 13.375H11.1875C11.3405 13.3749 11.4912 13.3373 11.6264 13.2656C11.7616 13.1938 11.8771 13.0901 11.963 12.9634C12.0488 12.8367 12.1023 12.6909 12.1189 12.5388C12.1354 12.3867 12.1144 12.2328 12.0578 12.0906L11.2094 9.95938C11.6463 9.52234 11.9438 8.96558 12.0643 8.35947C12.1849 7.75337 12.123 7.12514 11.8865 6.5542C11.65 5.98327 11.2496 5.49526 10.7358 5.15187C10.222 4.80848 9.61797 4.62513 9 4.625ZM9.8836 10.0078L10.7266 12.125H7.27344L8.11641 10.0078C8.16788 9.87859 8.17478 9.73589 8.13601 9.60231C8.09723 9.46873 8.01501 9.35189 7.90235 9.27031C7.58095 9.03824 7.34138 8.71026 7.21805 8.33351C7.09472 7.95675 7.09398 7.5506 7.21593 7.17339C7.33788 6.79618 7.57625 6.46734 7.8968 6.23409C8.21735 6.00084 8.60357 5.87519 9 5.87519C9.39643 5.87519 9.78266 6.00084 10.1032 6.23409C10.4238 6.46734 10.6621 6.79618 10.7841 7.17339C10.906 7.5506 10.9053 7.95675 10.782 8.33351C10.6586 8.71026 10.4191 9.03824 10.0977 9.27031C9.985 9.35189 9.90277 9.46873 9.864 9.60231C9.82523 9.73589 9.83212 9.87859 9.8836 10.0078Z" fill="#1D1D1D"/>
</svg>
