<svg width="18" height="18" viewBox="0 0 18 18" fill="none" xmlns="http://www.w3.org/2000/svg">
<path d="M9.00004 5.24979C8.25836 5.24979 7.53333 5.46973 6.91665 5.88178C6.29996 6.29384 5.81932 6.87951 5.53549 7.56473C5.25166 8.24995 5.1774 9.00395 5.32209 9.73138C5.46679 10.4588 5.82394 11.127 6.34839 11.6514C6.87283 12.1759 7.54102 12.533 8.26845 12.6777C8.99588 12.8224 9.74988 12.7482 10.4351 12.4643C11.1203 12.1805 11.706 11.6999 12.118 11.0832C12.5301 10.4665 12.75 9.74147 12.75 8.99979C12.749 8.00555 12.3536 7.05232 11.6505 6.34928C10.9475 5.64625 9.99428 5.25083 9.00004 5.24979ZM9.00004 11.4998C8.50558 11.4998 8.02223 11.3532 7.61111 11.0785C7.19999 10.8038 6.87956 10.4133 6.69034 9.9565C6.50112 9.49969 6.45161 8.99702 6.54807 8.51207C6.64454 8.02711 6.88264 7.58166 7.23227 7.23203C7.5819 6.88239 8.02736 6.64429 8.51231 6.54783C8.99726 6.45137 9.49993 6.50087 9.95675 6.69009C10.4136 6.87931 10.804 7.19974 11.0787 7.61087C11.3534 8.02199 11.5 8.50534 11.5 8.99979C11.5 9.66283 11.2366 10.2987 10.7678 10.7676C10.299 11.2364 9.66308 11.4998 9.00004 11.4998ZM15.875 9.16854C15.8782 9.05604 15.8782 8.94354 15.875 8.83104L17.0407 7.37479C17.1018 7.29833 17.1441 7.20859 17.1642 7.11278C17.1843 7.01698 17.1816 6.9178 17.1563 6.82323C16.9652 6.10495 16.6794 5.4153 16.3063 4.77245C16.2574 4.68832 16.1896 4.61676 16.1082 4.56346C16.0269 4.51015 15.9342 4.47658 15.8375 4.46542L13.9844 4.25917C13.9073 4.17792 13.8292 4.09979 13.75 4.02479L13.5313 2.16698C13.52 2.07027 13.4863 1.97753 13.4329 1.89614C13.3795 1.81476 13.3077 1.74699 13.2235 1.69823C12.5804 1.32584 11.8908 1.04029 11.1727 0.84901C11.0781 0.823852 10.9788 0.821278 10.883 0.841498C10.7872 0.861718 10.6975 0.904164 10.6211 0.965417L9.16879 2.12479C9.05629 2.12479 8.94379 2.12479 8.83129 2.12479L7.37504 0.96151C7.29858 0.900392 7.20883 0.858087 7.11303 0.838003C7.01722 0.81792 6.91804 0.82062 6.82347 0.845885C6.10531 1.03731 5.4157 1.32314 4.77269 1.69589C4.68857 1.74473 4.617 1.81255 4.5637 1.89392C4.5104 1.9753 4.47683 2.068 4.46566 2.16464L4.25941 4.02089C4.17816 4.09849 4.10004 4.17661 4.02504 4.25526L2.16722 4.46854C2.07051 4.47979 1.97777 4.51348 1.89639 4.56692C1.815 4.62037 1.74723 4.69208 1.69847 4.77635C1.32609 5.41945 1.04053 6.10904 0.849254 6.82714C0.824096 6.92176 0.821523 7.02098 0.841742 7.11679C0.861962 7.21259 0.904408 7.30231 0.965661 7.3787L2.12504 8.83104C2.12504 8.94354 2.12504 9.05604 2.12504 9.16854L0.961754 10.6248C0.900636 10.7013 0.858331 10.791 0.838248 10.8868C0.818164 10.9826 0.820864 11.0818 0.846129 11.1764C1.03721 11.8946 1.32306 12.5843 1.69613 13.2271C1.74498 13.3113 1.81279 13.3828 1.89417 13.4361C1.97555 13.4894 2.06824 13.523 2.16488 13.5342L4.01801 13.7404C4.09561 13.8217 4.17373 13.8998 4.25238 13.9748L4.46879 15.8326C4.48004 15.9293 4.51373 16.0221 4.56717 16.1034C4.62061 16.1848 4.69233 16.2526 4.7766 16.3014C5.4197 16.6737 6.10929 16.9593 6.82738 17.1506C6.92201 17.1757 7.02122 17.1783 7.11703 17.1581C7.21284 17.1379 7.30255 17.0954 7.37894 17.0342L8.83129 15.8748C8.94379 15.8779 9.05629 15.8779 9.16879 15.8748L10.625 17.0404C10.7015 17.1015 10.7912 17.1438 10.887 17.1639C10.9828 17.184 11.082 17.1813 11.1766 17.156C11.8949 16.965 12.5845 16.6791 13.2274 16.306C13.3115 16.2572 13.3831 16.1894 13.4364 16.108C13.4897 16.0266 13.5232 15.9339 13.5344 15.8373L13.7407 13.9842C13.8219 13.9071 13.9 13.829 13.975 13.7498L15.8329 13.531C15.9296 13.5198 16.0223 13.4861 16.1037 13.4327C16.1851 13.3792 16.2528 13.3075 16.3016 13.2232C16.674 12.5801 16.9595 11.8905 17.1508 11.1724C17.176 11.0778 17.1786 10.9786 17.1583 10.8828C17.1381 10.787 17.0957 10.6973 17.0344 10.6209L15.875 9.16854ZM14.6172 8.66073C14.6305 8.88658 14.6305 9.11301 14.6172 9.33885C14.6079 9.49348 14.6564 9.64605 14.7532 9.76698L15.8618 11.1521C15.7345 11.5564 15.5717 11.9486 15.375 12.324L13.6094 12.524C13.4557 12.5411 13.3137 12.6146 13.211 12.7303C13.0606 12.8994 12.9004 13.0596 12.7313 13.2099C12.6156 13.3127 12.5421 13.4546 12.525 13.6084L12.3289 15.3724C11.9536 15.5692 11.5614 15.7321 11.1571 15.8592L9.77113 14.7506C9.66023 14.662 9.52246 14.6137 9.3805 14.6139H9.34301C9.11716 14.6271 8.89073 14.6271 8.66488 14.6139C8.51026 14.6045 8.35769 14.653 8.23676 14.7498L6.84769 15.8592C6.44342 15.732 6.05125 15.5691 5.67582 15.3724L5.47582 13.6092C5.45875 13.4554 5.38526 13.3134 5.26957 13.2107C5.10043 13.0603 4.94026 12.9002 4.78988 12.731C4.68717 12.6153 4.5452 12.5419 4.39144 12.5248L2.62738 12.3279C2.43065 11.9525 2.26777 11.5603 2.14066 11.156L3.24925 9.77011C3.34606 9.64917 3.3945 9.4966 3.38519 9.34198C3.37191 9.11613 3.37191 8.8897 3.38519 8.66385C3.3945 8.50923 3.34606 8.35666 3.24925 8.23573L2.14066 6.84745C2.26787 6.44318 2.43075 6.05101 2.62738 5.67557L4.39066 5.47557C4.54442 5.45851 4.68639 5.38502 4.7891 5.26932C4.93948 5.10019 5.09965 4.94002 5.26879 4.78964C5.38494 4.68686 5.45873 4.54457 5.47582 4.39042L5.67191 2.62714C6.0473 2.43041 6.43948 2.26753 6.84379 2.14042L8.22972 3.24901C8.35066 3.34581 8.50323 3.39426 8.65785 3.38495C8.8837 3.37167 9.11013 3.37167 9.33597 3.38495C9.4906 3.39426 9.64317 3.34581 9.7641 3.24901L11.1524 2.14042C11.5567 2.26762 11.9488 2.4305 12.3243 2.62714L12.5243 4.39042C12.5413 4.54418 12.6148 4.68615 12.7305 4.78885C12.8996 4.93924 13.0598 5.09941 13.2102 5.26854C13.3129 5.38423 13.4549 5.45772 13.6086 5.47479L15.3727 5.67089C15.5694 6.04628 15.7323 6.43845 15.8594 6.84276L14.7508 8.2287C14.6531 8.35065 14.6046 8.50479 14.6149 8.66073H14.6172Z" fill="#1D1D1D"/>
</svg>
