<svg width="25" height="25" viewBox="0 0 25 25" fill="none" xmlns="http://www.w3.org/2000/svg">
<path d="M3.125 6.25016H5.20833M5.20833 6.25016H21.875M5.20833 6.25016V20.8335C5.20833 21.386 5.42783 21.9159 5.81853 22.3066C6.20923 22.6973 6.73913 22.9168 7.29167 22.9168H17.7083C18.2609 22.9168 18.7908 22.6973 19.1815 22.3066C19.5722 21.9159 19.7917 21.386 19.7917 20.8335V6.25016M8.33333 6.25016V4.16683C8.33333 3.61429 8.55283 3.08439 8.94353 2.69369C9.33423 2.30299 9.86413 2.0835 10.4167 2.0835H14.5833C15.1359 2.0835 15.6658 2.30299 16.0565 2.69369C16.4472 3.08439 16.6667 3.61429 16.6667 4.16683V6.25016M10.4167 11.4585V17.7085M14.5833 11.4585V17.7085" stroke="white" stroke-width="2" stroke-linecap="round" stroke-linejoin="round"/>
</svg>
