<svg width="29" height="19" viewBox="0 0 29 19" fill="none" xmlns="http://www.w3.org/2000/svg">
<rect x="1" y="1" width="26.2727" height="17" rx="5" fill="#2666AC"/>
<rect x="0.5" y="0.5" width="27.2727" height="18" rx="5.5" stroke="black" stroke-opacity="0.1"/>
<path d="M6.56255 5.94141H7.61724L8.64458 10.0898L10.8672 5.94141H12.0274L8.95318 11.6875H7.98833L6.56255 5.94141ZM12.754 5.94141H13.8086L13.0157 11.6875H11.9805L12.754 5.94141ZM17.9688 6.74219L17.1836 7.4375C16.8607 7.02083 16.5599 6.8125 16.2813 6.8125C16.1433 6.8125 16.0287 6.85417 15.9376 6.9375C15.8464 7.01823 15.8008 7.11589 15.8008 7.23047C15.8008 7.33724 15.8425 7.45573 15.9258 7.58594C16.0092 7.71615 16.2618 8.00391 16.6836 8.44922C16.9076 8.6862 17.0547 8.85417 17.1251 8.95312C17.2943 9.18229 17.4154 9.39714 17.4883 9.59766C17.5639 9.79557 17.6016 9.9974 17.6016 10.2031C17.6016 10.6641 17.4376 11.0508 17.1094 11.3633C16.7813 11.6758 16.3607 11.832 15.8477 11.832C15.0665 11.832 14.4297 11.4609 13.9376 10.7188L14.7657 10.0508C15.099 10.5586 15.4597 10.8125 15.8477 10.8125C16.0326 10.8125 16.1876 10.7526 16.3126 10.6328C16.4402 10.513 16.504 10.3685 16.504 10.1992C16.504 10.0664 16.4649 9.93099 16.3868 9.79297C16.3113 9.65495 16.0925 9.39453 15.7305 9.01172C15.3477 8.60807 15.0964 8.30339 14.9766 8.09766C14.8152 7.81901 14.7344 7.54557 14.7344 7.27734C14.7344 6.92318 14.8503 6.60547 15.0821 6.32422C15.3738 5.97266 15.767 5.79688 16.2618 5.79688C16.9415 5.79688 17.5105 6.11198 17.9688 6.74219ZM21.168 5.94141H22.0782L23.5079 11.6875H22.461L22.1563 10.4648H19.8868L19.2266 11.6875H18.0665L21.168 5.94141ZM21.8946 9.44922L21.4336 7.5625L20.4219 9.44922H21.8946Z" fill="white"/>
<path d="M2.01048 6.40918H4.9726L5.35897 7.95463L2.01048 6.40918Z" fill="#EEA84D"/>
</svg>
